<svg width="21" height="23" viewBox="0 0 21 23" fill="none" xmlns="http://www.w3.org/2000/svg">
<mask id="path-1-inside-1" fill="white">
<path d="M20.4171 15.1844L18.9373 15.6458L16.6374 14.3179L19.0685 13.56L18.6674 12.2736L15.0499 13.4014L13.9481 12.7653L13.4314 11.5L13.9481 10.2347L15.3797 9.4082L17.9248 10.2016L18.3259 8.91524L16.9672 8.49163L18.9373 7.35421L20.4171 7.81555L20.8182 6.52914L19.6498 6.16487L19.9186 4.97081L18.6039 4.67499L18.2636 6.18724L16.2934 7.3247L16.6059 5.93629L15.2913 5.64043L14.706 8.24122L13.2744 9.06773L11.9203 8.88258L11.0829 7.80243V6.53022L13.8683 3.96127L12.9548 2.97073L11.0829 4.69718V2.04141L12.2223 0.990542L11.3087 0L10.4091 0.829741L9.50944 0L8.59593 0.990542L9.73537 2.04141V4.69718L7.86339 2.97073L6.94988 3.96127L9.73537 6.53022V7.80248L8.89795 8.88258L7.54381 9.06773L6.11227 8.24122L5.52688 5.64043L4.21231 5.93629L4.52475 7.3247L2.55462 6.18724L2.21425 4.67499L0.899676 4.97081L1.16837 6.16487L0 6.52914L0.401059 7.81555L1.88092 7.35421L3.851 8.49163L2.49237 8.91519L2.89347 10.2016L5.43848 9.4082L6.8701 10.2347L7.38682 11.5L6.8701 12.7653L5.7683 13.4014L2.15078 12.2736L1.74972 13.56L4.18082 14.3179L1.88092 15.6458L0.401059 15.1844L0 16.4709L1.16837 16.8351L0.899676 18.0291L2.21425 18.325L2.55462 16.8127L4.85457 15.4849L4.29536 17.9693L5.60997 18.2651L6.44205 14.5683L7.54381 13.9322L8.89795 14.1174L9.73537 15.1975V16.8505L7.77566 18.6579L8.68922 19.6484L9.73537 18.6836V20.9585L8.59593 22.0095L9.50944 23L10.4091 22.1702L11.3087 23L12.2223 22.0095L11.0829 20.9585V18.6836L12.129 19.6484L13.0426 18.6579L11.0829 16.8505V15.1975L11.9203 14.1174L13.2744 13.9322L14.3761 14.5683L15.2082 18.2651L16.5228 17.9693L15.9637 15.4849L18.2636 16.8127L18.6039 18.325L19.9186 18.0291L19.6498 16.8351L20.8182 16.4709L20.4171 15.1844Z"/>
</mask>
<path d="M20.4171 15.1844L18.9373 15.6458L16.6374 14.3179L19.0685 13.56L18.6674 12.2736L15.0499 13.4014L13.9481 12.7653L13.4314 11.5L13.9481 10.2347L15.3797 9.4082L17.9248 10.2016L18.3259 8.91524L16.9672 8.49163L18.9373 7.35421L20.4171 7.81555L20.8182 6.52914L19.6498 6.16487L19.9186 4.97081L18.6039 4.67499L18.2636 6.18724L16.2934 7.3247L16.6059 5.93629L15.2913 5.64043L14.706 8.24122L13.2744 9.06773L11.9203 8.88258L11.0829 7.80243V6.53022L13.8683 3.96127L12.9548 2.97073L11.0829 4.69718V2.04141L12.2223 0.990542L11.3087 0L10.4091 0.829741L9.50944 0L8.59593 0.990542L9.73537 2.04141V4.69718L7.86339 2.97073L6.94988 3.96127L9.73537 6.53022V7.80248L8.89795 8.88258L7.54381 9.06773L6.11227 8.24122L5.52688 5.64043L4.21231 5.93629L4.52475 7.3247L2.55462 6.18724L2.21425 4.67499L0.899676 4.97081L1.16837 6.16487L0 6.52914L0.401059 7.81555L1.88092 7.35421L3.851 8.49163L2.49237 8.91519L2.89347 10.2016L5.43848 9.4082L6.8701 10.2347L7.38682 11.5L6.8701 12.7653L5.7683 13.4014L2.15078 12.2736L1.74972 13.56L4.18082 14.3179L1.88092 15.6458L0.401059 15.1844L0 16.4709L1.16837 16.8351L0.899676 18.0291L2.21425 18.325L2.55462 16.8127L4.85457 15.4849L4.29536 17.9693L5.60997 18.2651L6.44205 14.5683L7.54381 13.9322L8.89795 14.1174L9.73537 15.1975V16.8505L7.77566 18.6579L8.68922 19.6484L9.73537 18.6836V20.9585L8.59593 22.0095L9.50944 23L10.4091 22.1702L11.3087 23L12.2223 22.0095L11.0829 20.9585V18.6836L12.129 19.6484L13.0426 18.6579L11.0829 16.8505V15.1975L11.9203 14.1174L13.2744 13.9322L14.3761 14.5683L15.2082 18.2651L16.5228 17.9693L15.9637 15.4849L18.2636 16.8127L18.6039 18.325L19.9186 18.0291L19.6498 16.8351L20.8182 16.4709L20.4171 15.1844Z" stroke="#6A6A6A" mask="url(#path-1-inside-1)"/>
</svg>
