<svg width="29" height="24" viewBox="0 0 29 24" fill="none" xmlns="http://www.w3.org/2000/svg">
<path d="M28.5432 7.99728L28.5747 8.00861C28.6101 8.02761 28.6375 8.05565 28.6545 8.08782L28.6546 8.08808C28.6991 8.17222 28.6693 8.28226 28.5686 8.33224L28.5684 8.33236L25.3724 9.92179L25.0895 10.0625L25.2222 10.3493C25.4574 10.8576 25.5262 11.4227 25.42 11.9693L25.42 11.9694C25.133 13.4473 23.6562 14.4363 22.1068 14.1539L21.8405 14.1054L21.7446 14.3585L21.5471 14.8797C21.5471 14.8797 21.5471 14.8798 21.5471 14.8798C21.5471 14.8798 21.5471 14.8799 21.547 14.8799C21.5204 14.9497 21.447 15.0046 21.3558 15.0046C21.3306 15.0046 21.3064 15.0003 21.2837 14.9922L21.2832 14.992L16.8289 13.409L16.5291 13.3025L16.4162 13.6L16.0525 14.559C15.8983 14.9655 15.5877 15.3021 15.1817 15.4971L14.9974 15.5856V15.7901V21.4469C14.9974 22.1037 14.4446 22.6539 13.7407 22.6539C13.0369 22.6539 12.4842 22.1038 12.4842 21.4469V20.9362V20.6112H12.1592H5.06537H4.85552L4.76916 20.8025C4.4702 21.4646 3.85581 21.9499 3.11604 22.0986L2.85507 22.151V22.4172V23.4893C2.85507 23.5824 2.77459 23.675 2.65282 23.675H0.527246C0.405615 23.675 0.325 23.5823 0.325 23.4893V15.3193C0.325 15.2265 0.405705 15.1336 0.527246 15.1336H2.65282C2.7745 15.1336 2.85507 15.2264 2.85507 15.3193V16.3916V16.6579L3.11612 16.7103C3.85578 16.8587 4.47019 17.3442 4.76918 18.0062L4.85554 18.1974H5.06537H12.1592H12.4842V17.8724V15.2666V15.0949L12.3425 14.9982C11.6903 14.5528 11.4361 13.744 11.7111 13.0292L11.7117 13.0278L12.0754 12.0688L12.1931 11.7585L11.8804 11.6473L6.93113 9.88734C6.82209 9.84851 6.77993 9.74079 6.81298 9.65351L7.35812 8.215L7.47569 7.90478L7.16311 7.79362L4.68884 6.91371L4.68091 6.9109C4.5777 6.86991 4.53813 6.765 4.5705 6.67972L4.57052 6.67965L6.90793 0.517269L6.90812 0.517077L6.93384 0.449479C6.96896 0.357131 7.08414 0.297215 7.1975 0.337734C7.19753 0.337744 7.19756 0.337755 7.19759 0.337766L28.5432 7.99728ZM13.3211 15.4251L12.8885 15.2733V15.7318V17.8724V18.1974H13.2135H14.2679H14.5929V17.8724V16.0024V15.6907L14.2815 15.6777C14.1025 15.6703 13.9257 15.6366 13.7572 15.5782C13.757 15.5781 13.7568 15.5781 13.7566 15.578L13.3211 15.4251ZM2.1258 23.3039H2.4508V22.9789V15.8299V15.5049H2.1258H1.05449H0.729492V15.8299V22.9789V23.3039H1.05449H2.1258ZM4.55956 19.9155V19.9151L4.55956 18.8937L4.55956 18.8933C4.55848 18.1003 4.04319 17.4022 3.28573 17.1418L2.85507 16.9938V17.4492V21.3596V21.8152L3.28582 21.667C4.04315 21.4064 4.55848 20.7084 4.55956 19.9155ZM5.30543 18.5687H4.98043V18.8937V19.9151V20.2401H5.30543H14.2679H14.5929V19.9151V18.8937V18.5687H14.2679H5.30543ZM13.2135 20.6112H12.8885V20.9362V21.4469C12.8885 21.9181 13.2799 22.2825 13.7407 22.2825C14.2015 22.2825 14.5929 21.9181 14.5929 21.4469V20.9362V20.6112H14.2679H13.2135ZM16.0343 13.4789L16.1521 13.1683L15.8391 13.0573L15.5408 12.9515L15.5406 12.9514L12.8685 12.0013L12.5688 11.8947L12.4558 12.1922L12.0919 13.1505L12.0707 13.2062V13.2108C11.8454 13.901 12.2224 14.6373 12.9132 14.8829L12.9134 14.883L13.9049 15.2349C13.905 15.2349 13.905 15.2349 13.905 15.2349C14.6111 15.4857 15.4043 15.1389 15.6705 14.438L15.6706 14.4378L16.0343 13.4789ZM20.9343 14.4715L21.2342 14.5782L21.3471 14.2805L22.4374 11.4044L22.555 11.0942L22.2424 10.983L18.0944 9.50736L17.9106 9.44198L17.7665 9.5734L16.2878 10.9216C16.2877 10.9217 16.2876 10.9218 16.2875 10.9219C16.2316 10.9723 16.1473 10.9903 16.0709 10.9635C16.0708 10.9635 16.0706 10.9634 16.0705 10.9634L8.15323 8.14742L7.85339 8.04078L7.74047 8.33831L7.37651 9.29729L7.25874 9.6076L7.57145 9.71882L20.9343 14.4715ZM24.9113 12.2858L24.9122 12.2833C25.1223 11.7214 25.1041 11.1024 24.8617 10.5531L24.7242 10.2414L24.4193 10.3934L23.0887 11.0571L22.9749 11.1138L22.9299 11.2327L22.1152 13.3821L21.9641 13.781L22.3887 13.8209C23.4843 13.9238 24.523 13.2996 24.9113 12.2858ZM22.8556 10.7278L22.9175 10.7226L22.9731 10.6949L27.3079 8.53692L27.9899 8.1974L27.2728 7.94008L7.54675 0.861645L7.24628 0.753825L7.13309 1.05232L5.13429 6.32359L5.01665 6.63383L5.32927 6.74502L15.9116 10.5089L16.0952 10.5743L16.2393 10.443L17.7205 9.09392C17.776 9.04339 17.8599 9.0255 17.9361 9.05257L22.6366 10.7243L22.7306 10.7577L22.8272 10.7326C22.8366 10.7302 22.846 10.7286 22.8556 10.7278Z" stroke="#6A6A6A" stroke-width="0.65"/>
</svg>
