<svg width="24" height="19" viewBox="0 0 24 19" fill="none" xmlns="http://www.w3.org/2000/svg">
<path d="M0.615599 6.27034C0.61563 6.27037 0.61566 6.2704 0.615691 6.27043L0.389154 6.49707C0.64901 6.7566 0.988959 6.88627 1.32891 6.88627C1.66886 6.88627 2.00974 6.7566 2.26824 6.49707L0.615599 6.27034ZM0.615599 6.27034C0.813045 6.46753 1.07053 6.56583 1.32891 6.56583C1.58768 6.56583 1.84562 6.46729 2.04121 6.27093L2.04161 6.27052C4.57694 3.73429 7.95044 2.33714 11.5364 2.33714C15.1224 2.33714 18.4949 3.73431 21.0303 6.27052L21.0304 6.27054C21.4238 6.66416 22.0619 6.66421 22.4564 6.27077C22.8499 5.87674 22.8498 5.23817 22.4568 4.84427C19.5398 1.9264 15.6629 0.320444 11.5364 0.320444C7.4098 0.320444 3.53279 1.92647 0.615793 4.84447C0.221968 5.23847 0.222084 5.8769 0.615599 6.27034ZM6.81096 11.0394L6.81112 11.0392C8.0728 9.77626 9.75082 9.08145 11.5363 9.08145C13.3217 9.08145 14.9998 9.77626 16.2615 11.0392L16.2616 11.0393C16.6558 11.4333 16.6557 12.0716 16.2617 12.4651L16.2615 12.4653C16.0645 12.6623 15.808 12.7606 15.5488 12.7606C15.2913 12.7606 15.033 12.6623 14.8357 12.4652C13.9556 11.5839 12.7824 11.0983 11.5363 11.0983C10.2901 11.0983 9.11687 11.584 8.23676 12.4654C7.84253 12.8592 7.20465 12.859 6.81105 12.4653L6.81089 12.4651C6.41694 12.0716 6.41684 11.4333 6.81096 11.0394ZM3.71637 9.37109L3.71636 9.37108C3.32276 8.97765 3.32262 8.33918 3.71643 7.9452C5.80537 5.85599 8.58157 4.70589 11.5364 4.70589C14.4912 4.70589 17.2665 5.85596 19.3554 7.94518C19.7493 8.33916 19.7491 8.97764 19.3555 9.37108L19.3554 9.37121C19.1585 9.56824 18.9016 9.66662 18.6423 9.66662C18.3847 9.66662 18.1264 9.56816 17.9296 9.37121L17.9296 9.37116C16.2223 7.66348 13.9501 6.72254 11.5364 6.72254C9.12166 6.72254 6.84945 7.66347 5.14225 9.37116L5.14213 9.37127C4.749 9.7649 4.11059 9.76516 3.71637 9.37109ZM10.1575 17.1439C9.3965 16.3826 9.39653 15.1478 10.1576 14.3866C10.9191 13.6253 12.1538 13.6253 12.9154 14.3866C13.6764 15.1477 13.6764 16.3826 12.9154 17.1439C12.9154 17.1439 12.9154 17.1439 12.9154 17.1439L10.1575 17.1439Z" stroke="#6A6A6A" stroke-width="0.640888"/>
</svg>
